<svg xmlns="http://www.w3.org/2000/svg" viewBox="0 0 1100 430">
  <rect width="1100" height="430" rx="20" fill="#0B1120"/>
  <g font-family="monospace">
    <text x="45" y="45" fill="#22D3EE" font-size="14" letter-spacing="3">CNN ARCHITECTURE</text>
    <g fill="#111827" stroke="#334155">
      <rect x="40" y="85" width="145" height="75" rx="12"/><rect x="215" y="85" width="145" height="75" rx="12"/>
      <rect x="390" y="85" width="145" height="75" rx="12"/><rect x="565" y="85" width="145" height="75" rx="12"/>
      <rect x="740" y="85" width="145" height="75" rx="12"/><rect x="915" y="85" width="145" height="75" rx="12"/>
    </g>
    <g fill="#E5E7EB" font-size="15" font-weight="700" text-anchor="middle">
      <text x="112" y="118">INPUT</text><text x="287" y="118">CONV 32</text><text x="462" y="118">CONV 64</text>
      <text x="637" y="118">CONV 128</text><text x="812" y="118">CONV 256</text><text x="987" y="118">DENSE</text>
    </g>
    <g fill="#94A3B8" font-size="11" text-anchor="middle">
      <text x="112" y="140">128 × 128 × 3</text><text x="287" y="140">+ MaxPool</text><text x="462" y="140">+ MaxPool</text>
      <text x="637" y="140">+ MaxPool</text><text x="812" y="140">+ MaxPool</text><text x="987" y="140">512 → 256 → Softmax</text>
    </g>
    <g stroke="#3B82F6" stroke-width="2" fill="none">
      <path d="M185 122H215M360 122H390M535 122H565M710 122H740M885 122H915"/>
    </g>
    <g fill="#22D3EE">
      <path d="M209 116l8 6-8 6zM384 116l8 6-8 6zM559 116l8 6-8 6zM734 116l8 6-8 6zM909 116l8 6-8 6z"/>
    </g>
    <rect x="205" y="230" width="690" height="130" rx="14" fill="#111827" stroke="#1E293B"/>
    <text x="550" y="260" fill="#22D3EE" font-size="13" text-anchor="middle">TRAINING CONFIGURATION</text>
    <text x="550" y="290" fill="#E5E7EB" font-size="15" text-anchor="middle">Adam  •  0.001  •  Batch 32  •  Max 30 epochs</text>
    <text x="550" y="318" fill="#E5E7EB" font-size="15" text-anchor="middle">Sparse categorical crossentropy  •  Early stopping: 5</text>
    <text x="550" y="346" fill="#94A3B8" font-size="13" text-anchor="middle">80/20 stratified train / held-out evaluation split</text>
  </g>
</svg>
